<svg width="136" height="24" viewBox="0 0 136 24" fill="none" xmlns="http://www.w3.org/2000/svg">
<g clip-path="url(#clip0_392_2)">
<path d="M7.16779 3.62422L10.953 1.48999L22.7114 8.05375V13.5705L17.396 16.5101L13.6107 14.3759L17.557 12.1611C18.0403 11.8793 18.3221 11.3558 18.3221 10.792C18.3221 10.2282 18 9.70475 17.5168 9.42288L7.16779 3.62422Z" fill="#009FE3"/>
<path d="M0 13.1678V7.65101L5.27517 4.67114L9.0604 6.80537L5.11409 9.02014C4.63087 9.30201 4.34899 9.8255 4.34899 10.3893C4.34899 10.953 4.67114 11.4765 5.11409 11.7584L15.5034 17.557L11.7181 19.7315L0 13.1678Z" fill="#009FE3"/>
<path d="M37.047 7.40945C36.604 6.68462 36 6.16113 35.2349 5.75845C34.4698 5.35576 33.5436 5.15442 32.5369 5.15442C31.2886 5.15442 30.2013 5.4363 29.2349 6.04032C28.2684 6.60408 27.5436 7.40945 27.0201 8.41616C26.4966 9.42288 26.2148 10.5504 26.2148 11.839C26.2148 13.1276 26.4966 14.2551 27.0201 15.2618C27.5436 16.2685 28.2684 17.0336 29.2349 17.6376C30.2013 18.2014 31.2886 18.5235 32.5369 18.5235C33.6644 18.5235 34.6309 18.2819 35.3557 17.839C36.0805 17.396 36.6846 16.8725 37.047 16.2685L37.2483 18.2417H39.6241V5.4363H37.208L37.047 7.40945ZM36.5235 14.1343C36.2013 14.8188 35.7181 15.3423 35.0738 15.7048C34.4698 16.0672 33.745 16.2685 32.9396 16.2685C32.1745 16.2685 31.4497 16.0672 30.8456 15.7048C30.2416 15.3423 29.7584 14.8188 29.396 14.1343C29.0335 13.4497 28.8725 12.6846 28.8725 11.7987C28.8725 10.9128 29.0335 10.1477 29.396 9.46314C29.7584 8.81885 30.2416 8.29536 30.8456 7.89267C31.4497 7.53026 32.1745 7.32892 32.9396 7.32892C33.745 7.32892 34.4698 7.53026 35.0738 7.89267C35.6778 8.25509 36.1611 8.77858 36.5235 9.46314C36.8456 10.1074 37.047 10.9128 37.047 11.7987C37.047 12.6846 36.8859 13.4497 36.5235 14.1343Z" fill="white"/>
<path d="M44.4564 0H41.8792V18.1208H44.4564V0Z" fill="white"/>
<path d="M55.6107 5.43628L51.906 15.7047L48.2013 5.43628H45.4631L50.3758 18.1208H53.4362L58.3087 5.43628H55.6107Z" fill="white"/>
<path d="M69.0201 7.40945C68.5772 6.68462 67.9731 6.16113 67.208 5.75845C66.4429 5.35576 65.5168 5.15442 64.51 5.15442C63.2617 5.15442 62.1745 5.4363 61.208 6.04032C60.2416 6.60408 59.5168 7.40945 58.9933 8.41616C58.4698 9.42288 58.1879 10.5504 58.1879 11.839C58.1879 13.1276 58.4698 14.2551 58.9933 15.2618C59.5168 16.2685 60.2416 17.0336 61.208 17.6376C62.1745 18.2014 63.2617 18.5235 64.51 18.5235C65.6376 18.5235 66.604 18.2819 67.3288 17.839C68.0537 17.396 68.6577 16.8725 69.0201 16.2685L69.2215 18.2417H71.5973V5.4363H69.1812L69.0201 7.40945ZM68.4564 14.1343C68.1342 14.8188 67.651 15.3423 67.0067 15.7048C66.4027 16.0672 65.6778 16.2685 64.8725 16.2685C64.1074 16.2685 63.3825 16.0672 62.7785 15.7048C62.1745 15.3423 61.6913 14.8188 61.3288 14.1343C60.9664 13.4497 60.8053 12.6846 60.8053 11.7987C60.8053 10.9128 60.9664 10.1477 61.3288 9.46314C61.6913 8.81885 62.1745 8.29536 62.7785 7.89267C63.3825 7.53026 64.1074 7.32892 64.8725 7.32892C65.6778 7.32892 66.4027 7.53026 67.0067 7.89267C67.6107 8.25509 68.0939 8.77858 68.4564 9.46314C68.7785 10.1074 68.9798 10.9128 68.9798 11.7987C68.9798 12.6846 68.8188 13.4497 68.4564 14.1343Z" fill="white"/>
<path d="M77.5168 6.40273C77.0335 6.80541 76.6711 7.28863 76.3893 7.85239L76.1476 5.47655H73.8121V18.1208H76.3893V11.7987C76.3893 11.0336 76.5101 10.3893 76.7114 9.86581C76.9127 9.34232 77.1946 8.93964 77.5973 8.61749C77.9597 8.29534 78.4027 8.094 78.8859 7.9732C79.3691 7.85239 79.8926 7.77185 80.4161 7.77185H81.3423V5.11414C80.5369 5.11414 79.8121 5.23494 79.1678 5.43628C78.5235 5.67789 77.9597 6.00004 77.5168 6.40273Z" fill="white"/>
<path d="M91.208 5.95977C90.2819 5.39602 89.1946 5.11414 87.906 5.11414C86.6174 5.11414 85.4899 5.39602 84.5235 5.95977C83.557 6.52353 82.7919 7.28863 82.2684 8.29534C81.7047 9.30206 81.4631 10.4698 81.4631 11.7987C81.4631 13.1276 81.745 14.2551 82.2684 15.2618C82.8322 16.2685 83.557 17.0336 84.5235 17.5974C85.4899 18.1611 86.6174 18.443 87.8255 18.443C88.8322 18.443 89.7584 18.2819 90.5235 17.9195C91.3288 17.5571 91.9731 17.0739 92.4966 16.4698C93.0201 15.8658 93.4228 15.1812 93.6241 14.3759H91.047C90.8054 14.9799 90.4027 15.4631 89.8389 15.8255C89.3154 16.188 88.6309 16.349 87.7852 16.349C87.1007 16.349 86.4564 16.188 85.8523 15.8658C85.2483 15.5437 84.8054 15.0604 84.4429 14.4161C84.1208 13.8524 83.9597 13.2081 83.9194 12.4027H93.9463C93.9463 12.1611 93.9866 11.9598 93.9866 11.7584C93.9866 11.5571 93.9866 11.396 93.9866 11.2349C93.9866 10.1074 93.745 9.10071 93.2215 8.21481C92.8188 7.24836 92.0939 6.52353 91.208 5.95977ZM84.0403 10.5906C84.1208 9.98662 84.2819 9.46313 84.5235 9.06044C84.8859 8.45642 85.3288 8.01346 85.9329 7.69132C86.5369 7.36917 87.1812 7.2081 87.8658 7.2081C88.8725 7.2081 89.7181 7.48997 90.3624 8.094C91.047 8.69803 91.4094 9.5034 91.4497 10.5906H84.0403Z" fill="white"/>
<path d="M105.141 5.75845C104.416 5.35576 103.49 5.15442 102.483 5.15442C101.517 5.15442 100.631 5.39603 99.8657 5.83898C99.1006 6.28194 98.5369 6.88596 98.0939 7.65106L97.9329 5.47657H95.5973V18.1209H98.1745V11.3558C98.1745 10.4699 98.3355 9.74502 98.6577 9.141C98.9798 8.53697 99.4228 8.09402 99.9463 7.77187C100.47 7.44972 101.074 7.28865 101.758 7.28865C102.765 7.28865 103.57 7.61079 104.094 8.21482C104.617 8.81885 104.899 9.70475 104.899 10.8725V18.1209H107.476V10.6309C107.476 9.42288 107.275 8.3759 106.872 7.57053C106.47 6.76516 105.866 6.16113 105.141 5.75845Z" fill="white"/>
<path d="M114.805 5.15442C113.718 5.15442 112.792 5.35576 111.987 5.75845C111.221 6.16113 110.617 6.72489 110.215 7.40945C109.812 8.09402 109.611 8.85912 109.611 9.70475C109.611 10.5504 109.812 11.3155 110.215 12.0001C110.456 12.4027 110.738 12.7652 111.101 13.047L108.846 15.3021V15.8658C109.087 16.0672 109.329 16.3088 109.651 16.5101C109.893 16.6712 110.174 16.792 110.497 16.9128C110.336 17.0336 110.174 17.1544 110.054 17.2752C109.57 17.6779 109.248 18.1209 109.047 18.6041C108.846 19.047 108.725 19.5303 108.725 19.9732C108.725 20.8591 108.966 21.5839 109.49 22.188C109.973 22.792 110.698 23.235 111.624 23.5168C112.55 23.7987 113.597 23.9598 114.805 23.9598C116.134 23.9598 117.262 23.7584 118.107 23.3155C118.953 22.9128 119.597 22.3491 120 21.7048C120.403 21.0605 120.604 20.3759 120.604 19.6511C120.604 18.9262 120.443 18.2819 120.121 17.7182C119.799 17.1947 119.275 16.7517 118.55 16.4296C117.825 16.1074 116.899 15.9061 115.732 15.8256C114.926 15.745 114.282 15.7048 113.758 15.6242C113.275 15.5437 112.872 15.4631 112.55 15.3826C112.268 15.3021 112.027 15.2215 111.866 15.1007C111.825 15.0605 111.785 15.0605 111.745 15.0202L112.953 13.9329C113.517 14.094 114.121 14.1746 114.846 14.1746C115.933 14.1746 116.859 13.9732 117.624 13.5705C118.389 13.1678 118.993 12.6041 119.396 11.9195C119.799 11.235 120 10.4699 120 9.62422C120 8.77858 119.799 8.01348 119.396 7.32892C119.396 7.28865 119.356 7.28865 119.356 7.24838L121.732 7.12757V5.39603H116.899C116.215 5.23496 115.53 5.15442 114.805 5.15442ZM115.128 17.7584C116.295 17.839 117.101 18.0403 117.503 18.4027C117.906 18.7652 118.107 19.2081 118.107 19.7316C118.107 20.1746 117.987 20.5772 117.705 20.8994C117.423 21.2215 117.02 21.5034 116.537 21.6645C116.054 21.8658 115.45 21.9464 114.765 21.9464C114.081 21.9464 113.436 21.8658 112.913 21.7048C112.349 21.5437 111.946 21.3021 111.624 20.9397C111.302 20.6175 111.141 20.1746 111.141 19.6913C111.141 19.2886 111.302 18.8457 111.584 18.4027C111.825 18.0806 112.228 17.7584 112.792 17.4766C113.477 17.6376 114.242 17.7182 115.128 17.7584ZM116.819 11.5571C116.336 12.0001 115.651 12.2014 114.805 12.2014C113.96 12.2014 113.275 12.0001 112.752 11.5571C112.228 11.1142 111.987 10.5101 111.987 9.66449C111.987 8.85912 112.228 8.21482 112.752 7.77187C113.275 7.32892 113.96 7.12757 114.805 7.12757C115.651 7.12757 116.336 7.32892 116.819 7.77187C117.302 8.21482 117.584 8.81885 117.584 9.66449C117.544 10.5101 117.302 11.1544 116.819 11.5571Z" fill="white"/>
<path d="M132.926 5.4363L132.725 7.40945C132.282 6.68462 131.678 6.16113 130.913 5.75845C130.148 5.35576 129.221 5.15442 128.215 5.15442C126.966 5.15442 125.879 5.4363 124.913 6.04032C123.946 6.60408 123.221 7.40945 122.698 8.41616C122.174 9.42288 121.893 10.5504 121.893 11.839C121.893 13.1276 122.174 14.2551 122.698 15.2618C123.221 16.2685 123.946 17.0336 124.913 17.6376C125.879 18.2014 126.966 18.5235 128.215 18.5235C129.342 18.5235 130.309 18.2819 131.034 17.839C131.758 17.396 132.362 16.8725 132.725 16.2685L132.926 18.2417H135.302V5.4363H132.926ZM132.201 14.1343C131.879 14.8188 131.396 15.3423 130.752 15.7048C130.148 16.0672 129.423 16.2685 128.617 16.2685C127.852 16.2685 127.128 16.0672 126.523 15.7048C125.919 15.3423 125.436 14.8188 125.074 14.1343C124.711 13.4497 124.55 12.6846 124.55 11.7987C124.55 10.9128 124.711 10.1477 125.074 9.46314C125.436 8.81885 125.919 8.29536 126.523 7.89267C127.128 7.53026 127.852 7.32892 128.617 7.32892C129.423 7.32892 130.148 7.53026 130.752 7.89267C131.356 8.25509 131.839 8.77858 132.201 9.46314C132.523 10.1074 132.725 10.9128 132.725 11.7987C132.685 12.6846 132.523 13.4497 132.201 14.1343Z" fill="white"/>
</g>
<defs>
<clipPath id="clip0_392_2">
<rect width="135.302" height="24" fill="white"/>
</clipPath>
</defs>
</svg>
