<svg width="336" height="60" viewBox="0 0 336 60" fill="none" xmlns="http://www.w3.org/2000/svg">
<g clip-path="url(#clip0_2_308)">
<path d="M17.8 9.00001L27.2 3.70001L56.4 20V33.7L43.2 41L33.8 35.7L43.6 30.2C44.8 29.5 45.5 28.2 45.5 26.8C45.5 25.4 44.7 24.1 43.5 23.4L17.8 9.00001Z" fill="#009FE3"/>
<path d="M0 32.7V19L13.1 11.6L22.5 16.9L12.7 22.4C11.5 23.1 10.8 24.4 10.8 25.8C10.8 27.2 11.6 28.5 12.7 29.2L38.5 43.6L29.1 49L0 32.7Z" fill="#009FE3"/>
<path d="M92 18.4C90.9 16.6 89.4 15.3 87.5 14.3C85.6 13.3 83.3 12.8 80.8 12.8C77.7 12.8 75 13.5 72.6 15C70.2 16.4 68.4 18.4 67.1 20.9C65.8 23.4 65.1 26.2 65.1 29.4C65.1 32.6 65.8 35.4 67.1 37.9C68.4 40.4 70.2 42.3 72.6 43.8C75 45.2 77.7 46 80.8 46C83.6 46 86 45.4 87.8 44.3C89.6 43.2 91.1 41.9 92 40.4L92.5 45.3H98.4V13.5H92.4L92 18.4ZM90.7 35.1C89.9 36.8 88.7 38.1 87.1 39C85.6 39.9 83.8 40.4 81.8 40.4C79.9 40.4 78.1 39.9 76.6 39C75.1 38.1 73.9 36.8 73 35.1C72.1 33.4 71.7 31.5 71.7 29.3C71.7 27.1 72.1 25.2 73 23.5C73.9 21.9 75.1 20.6 76.6 19.6C78.1 18.7 79.9 18.2 81.8 18.2C83.8 18.2 85.6 18.7 87.1 19.6C88.6 20.5 89.8 21.8 90.7 23.5C91.5 25.1 92 27.1 92 29.3C92 31.5 91.6 33.4 90.7 35.1Z" fill="white"/>
<path d="M110.4 0H104V45H110.4V0Z" fill="white"/>
<path d="M138.1 13.5L128.9 39L119.7 13.5H112.9L125.1 45H132.7L144.8 13.5H138.1Z" fill="white"/>
<path d="M171.4 18.4C170.3 16.6 168.8 15.3 166.9 14.3C165 13.3 162.7 12.8 160.2 12.8C157.1 12.8 154.4 13.5 152 15C149.6 16.4 147.8 18.4 146.5 20.9C145.2 23.4 144.5 26.2 144.5 29.4C144.5 32.6 145.2 35.4 146.5 37.9C147.8 40.4 149.6 42.3 152 43.8C154.4 45.2 157.1 46 160.2 46C163 46 165.4 45.4 167.2 44.3C169 43.2 170.5 41.9 171.4 40.4L171.9 45.3H177.8V13.5H171.8L171.4 18.4ZM170 35.1C169.2 36.8 168 38.1 166.4 39C164.9 39.9 163.1 40.4 161.1 40.4C159.2 40.4 157.4 39.9 155.9 39C154.4 38.1 153.2 36.8 152.3 35.1C151.4 33.4 151 31.5 151 29.3C151 27.1 151.4 25.2 152.3 23.5C153.2 21.9 154.4 20.6 155.9 19.6C157.4 18.7 159.2 18.2 161.1 18.2C163.1 18.2 164.9 18.7 166.4 19.6C167.9 20.5 169.1 21.8 170 23.5C170.8 25.1 171.3 27.1 171.3 29.3C171.3 31.5 170.9 33.4 170 35.1Z" fill="white"/>
<path d="M192.5 15.9C191.3 16.9 190.4 18.1 189.7 19.5L189.1 13.6H183.3V45H189.7V29.3C189.7 27.4 190 25.8 190.5 24.5C191 23.2 191.7 22.2 192.7 21.4C193.6 20.6 194.7 20.1 195.9 19.8C197.1 19.5 198.4 19.3 199.7 19.3H202V12.7C200 12.7 198.2 13 196.6 13.5C195 14.1 193.6 14.9 192.5 15.9Z" fill="white"/>
<path d="M226.5 14.8C224.2 13.4 221.5 12.7 218.3 12.7C215.1 12.7 212.3 13.4 209.9 14.8C207.5 16.2 205.6 18.1 204.3 20.6C202.9 23.1 202.3 26 202.3 29.3C202.3 32.6 203 35.4 204.3 37.9C205.7 40.4 207.5 42.3 209.9 43.7C212.3 45.1 215.1 45.8 218.1 45.8C220.6 45.8 222.9 45.4 224.8 44.5C226.8 43.6 228.4 42.4 229.7 40.9C231 39.4 232 37.7 232.5 35.7H226.1C225.5 37.2 224.5 38.4 223.1 39.3C221.8 40.2 220.1 40.6 218 40.6C216.3 40.6 214.7 40.2 213.2 39.4C211.7 38.6 210.6 37.4 209.7 35.8C208.9 34.4 208.5 32.8 208.4 30.8H233.3C233.3 30.2 233.4 29.7 233.4 29.2C233.4 28.7 233.4 28.3 233.4 27.9C233.4 25.1 232.8 22.6 231.5 20.4C230.5 18 228.7 16.2 226.5 14.8ZM208.7 26.3C208.9 24.8 209.3 23.5 209.9 22.5C210.8 21 211.9 19.9 213.4 19.1C214.9 18.3 216.5 17.9 218.2 17.9C220.7 17.9 222.8 18.6 224.4 20.1C226.1 21.6 227 23.6 227.1 26.3H208.7Z" fill="white"/>
<path d="M261.1 14.3C259.3 13.3 257 12.8 254.5 12.8C252.1 12.8 249.9 13.4 248 14.5C246.1 15.6 244.7 17.1 243.6 19L243.2 13.6H237.4V45H243.8V28.2C243.8 26 244.2 24.2 245 22.7C245.8 21.2 246.9 20.1 248.2 19.3C249.5 18.5 251 18.1 252.7 18.1C255.2 18.1 257.2 18.9 258.5 20.4C259.8 21.9 260.5 24.1 260.5 27V45H266.9V26.4C266.9 23.4 266.4 20.8 265.4 18.8C264.4 16.8 262.9 15.3 261.1 14.3Z" fill="white"/>
<path d="M285.1 12.8C282.4 12.8 280.1 13.3 278.1 14.3C276.2 15.3 274.7 16.7 273.7 18.4C272.7 20.1 272.2 22 272.2 24.1C272.2 26.2 272.7 28.1 273.7 29.8C274.3 30.8 275 31.7 275.9 32.4L270.3 38V39.4C270.9 39.9 271.5 40.5 272.3 41C272.9 41.4 273.6 41.7 274.4 42C274 42.3 273.6 42.6 273.3 42.9C272.1 43.9 271.3 45 270.8 46.2C270.3 47.3 270 48.5 270 49.6C270 51.8 270.6 53.6 271.9 55.1C273.1 56.6 274.9 57.7 277.2 58.4C279.5 59.1 282.1 59.5 285.1 59.5C288.4 59.5 291.2 59 293.3 57.9C295.4 56.9 297 55.5 298 53.9C299 52.3 299.5 50.6 299.5 48.8C299.5 47 299.1 45.4 298.3 44C297.5 42.7 296.2 41.6 294.4 40.8C292.6 40 290.3 39.5 287.4 39.3C285.4 39.1 283.8 39 282.5 38.8C281.3 38.6 280.3 38.4 279.5 38.2C278.8 38 278.2 37.8 277.8 37.5C277.7 37.4 277.6 37.4 277.5 37.3L280.5 34.6C281.9 35 283.4 35.2 285.2 35.2C287.9 35.2 290.2 34.7 292.1 33.7C294 32.7 295.5 31.3 296.5 29.6C297.5 27.9 298 26 298 23.9C298 21.8 297.5 19.9 296.5 18.2C296.5 18.1 296.4 18.1 296.4 18L302.3 17.7V13.4H290.3C288.6 13 286.9 12.8 285.1 12.8ZM285.9 44.1C288.8 44.3 290.8 44.8 291.8 45.7C292.8 46.6 293.3 47.7 293.3 49C293.3 50.1 293 51.1 292.3 51.9C291.6 52.7 290.6 53.4 289.4 53.8C288.2 54.3 286.7 54.5 285 54.5C283.3 54.5 281.7 54.3 280.4 53.9C279 53.5 278 52.9 277.2 52C276.4 51.2 276 50.1 276 48.9C276 47.9 276.4 46.8 277.1 45.7C277.7 44.9 278.7 44.1 280.1 43.4C281.8 43.8 283.7 44 285.9 44.1ZM290.1 28.7C288.9 29.8 287.2 30.3 285.1 30.3C283 30.3 281.3 29.8 280 28.7C278.7 27.6 278.1 26.1 278.1 24C278.1 22 278.7 20.4 280 19.3C281.3 18.2 283 17.7 285.1 17.7C287.2 17.7 288.9 18.2 290.1 19.3C291.3 20.4 292 21.9 292 24C291.9 26.1 291.3 27.7 290.1 28.7Z" fill="white"/>
<path d="M330.1 13.5L329.6 18.4C328.5 16.6 327 15.3 325.1 14.3C323.2 13.3 320.9 12.8 318.4 12.8C315.3 12.8 312.6 13.5 310.2 15C307.8 16.4 306 18.4 304.7 20.9C303.4 23.4 302.7 26.2 302.7 29.4C302.7 32.6 303.4 35.4 304.7 37.9C306 40.4 307.8 42.3 310.2 43.8C312.6 45.2 315.3 46 318.4 46C321.2 46 323.6 45.4 325.4 44.3C327.2 43.2 328.7 41.9 329.6 40.4L330.1 45.3H336V13.5H330.1ZM328.3 35.1C327.5 36.8 326.3 38.1 324.7 39C323.2 39.9 321.4 40.4 319.4 40.4C317.5 40.4 315.7 39.9 314.2 39C312.7 38.1 311.5 36.8 310.6 35.1C309.7 33.4 309.3 31.5 309.3 29.3C309.3 27.1 309.7 25.2 310.6 23.5C311.5 21.9 312.7 20.6 314.2 19.6C315.7 18.7 317.5 18.2 319.4 18.2C321.4 18.2 323.2 18.7 324.7 19.6C326.2 20.5 327.4 21.8 328.3 23.5C329.1 25.1 329.6 27.1 329.6 29.3C329.5 31.5 329.1 33.4 328.3 35.1Z" fill="white"/>
</g>
<defs>
<clipPath id="clip0_2_308">
<rect width="336" height="59.6" fill="white"/>
</clipPath>
</defs>
</svg>
